<svg width="117" height="41" viewBox="0 0 117 41" fill="none" xmlns="http://www.w3.org/2000/svg">
<path d="M8.4918 19.6089V27.7244C8.4918 28.8489 8.59016 29.68 8.83606 30.2178C9.08197 30.7067 9.52459 31.0978 10.1148 31.2444C10.7049 31.44 11.6885 31.5378 13.0656 31.5867V32.4667C11.4918 32.3689 9.27869 32.32 6.37705 32.32C3.77049 32.32 1.85246 32.3689 0.573769 32.4667V31.5867C1.65574 31.5378 2.44262 31.3911 2.9836 31.2444C3.47541 31.0489 3.81967 30.7067 4.01639 30.2178C4.21311 29.7289 4.31147 28.8978 4.31147 27.7244V5.33333C4.31147 4.20889 4.21311 3.37778 4.01639 2.84C3.81967 2.35111 3.47541 1.96 2.9836 1.81333C2.4918 1.66667 1.70492 1.52 0.622949 1.47111V0.542221C1.90164 0.639999 3.72131 0.688888 6.18033 0.688888L11.0984 0.639999C11.6885 0.59111 12.3279 0.59111 13.0656 0.59111C16.6066 0.59111 19.3115 1.37333 21.1803 2.98667C23.0492 4.6 23.9836 6.75111 23.9836 9.48889C23.9836 11.1511 23.5902 12.7156 22.8525 14.2311C22.1148 15.7956 20.8361 17.0667 19.0656 18.0444C17.2951 19.0711 14.9344 19.56 11.9836 19.56H8.4918V19.6089ZM9.77049 1.76444C9.27869 1.96 8.9836 2.35111 8.78688 2.88889C8.59016 3.42667 8.4918 4.25778 8.4918 5.33333V18.68H11.541C14.4918 18.68 16.5574 17.8978 17.6885 16.3333C18.8197 14.7689 19.4098 12.6178 19.4098 9.97778C19.4098 7.04444 18.8197 4.89333 17.6393 3.52444C16.459 2.15555 14.541 1.47111 11.8361 1.47111C10.9508 1.47111 10.2131 1.56889 9.77049 1.76444Z" fill="white"/>
<path d="M28.1148 31.3911C27.1803 30.4622 26.7377 29.1422 26.7377 27.4311C26.7377 26.0622 27.1311 24.9867 27.8688 24.1067C28.6066 23.2267 29.4918 22.5422 30.5246 22.0533C31.5574 21.5644 32.8852 20.9778 34.5574 20.44C36.2295 19.8533 37.5082 19.3644 38.3443 18.8756C39.1803 18.3867 39.5738 17.7511 39.5738 16.92V14.1333C39.5738 12.3733 39.1803 11.2 38.4426 10.5644C37.7049 9.92889 36.6721 9.58666 35.3443 9.58666C33.2295 9.58666 31.7049 10.1244 30.8688 11.2C31.459 11.3467 32 11.6889 32.3934 12.1289C32.7869 12.6178 32.9836 13.2044 32.9836 13.9378C32.9836 14.6711 32.7377 15.3067 32.2459 15.6978C31.7541 16.1378 31.1639 16.3333 30.377 16.3333C29.541 16.3333 28.9016 16.0889 28.459 15.5511C28.0164 15.0133 27.8197 14.3778 27.8197 13.6444C27.8197 12.9111 28.0164 12.3244 28.3607 11.8356C28.7049 11.3467 29.2459 10.8578 29.9344 10.3689C30.6721 9.88 31.6066 9.44 32.6885 9.09778C33.8197 8.75555 35.0492 8.60889 36.377 8.60889C38.7377 8.60889 40.5082 9.14666 41.7377 10.2711C42.4754 10.9556 43.0164 11.7867 43.2623 12.7644C43.5082 13.7422 43.6557 15.0133 43.6557 16.6267V29.1911C43.6557 29.9244 43.7541 30.4622 43.9508 30.8044C44.1475 31.1467 44.541 31.2933 45.0328 31.2933C45.377 31.2933 45.7213 31.1956 46.0656 31.0489C46.3606 30.9022 46.7049 30.6578 47.0984 30.3644L47.5902 31.1467C46.8033 31.7333 46.1147 32.1733 45.5738 32.4178C45.0328 32.6622 44.2951 32.8089 43.459 32.8089C41.9836 32.8089 41 32.4667 40.4098 31.7333C39.8197 31 39.5246 30.0222 39.5246 28.8C38.6393 30.3156 37.5574 31.3422 36.377 31.9289C35.1967 32.5156 33.8688 32.8089 32.3934 32.8089C30.4262 32.8578 29.0492 32.3689 28.1148 31.3911ZM39.4754 27.5778V18.7289C39.2295 19.1689 38.8361 19.5111 38.3443 19.8044C37.8525 20.0978 37.1147 20.44 36.1311 20.88C35 21.3689 34.0656 21.8089 33.3279 22.2489C32.6393 22.6889 32 23.2756 31.5082 24.0089C31.0164 24.7422 30.7213 25.72 30.7213 26.8933C30.7213 28.2622 31.0656 29.2889 31.7049 29.9733C32.3934 30.6578 33.2295 31 34.3607 31C36.377 31.0489 38.0492 29.8756 39.4754 27.5778Z" fill="white"/>
<path d="M67.7049 9.92889C68.9836 10.8089 70.0164 12.08 70.7049 13.7911C71.4426 15.4533 71.7869 17.5067 71.7869 19.8533C71.7869 22.1511 71.3934 24.3511 70.6557 26.3556C69.918 28.36 68.7869 30.0222 67.2131 31.2933C65.6393 32.5644 63.7213 33.2 61.3607 33.2C60.2295 33.2 59.1475 32.9556 58.2131 32.5156C57.2787 32.0756 56.541 31.4889 56.0492 30.7556V36.5244C56.0492 37.7467 56.3934 38.6267 57.1311 39.0667C57.8688 39.5556 58.9508 39.7511 60.4262 39.7511V40.68L59.3934 40.6311C56.5902 40.5333 54.7213 40.4844 53.8852 40.4844C53.1475 40.4844 51.5246 40.5333 48.9672 40.68V39.7511C50.0984 39.7511 50.8852 39.5556 51.3279 39.1644C51.7705 38.7733 51.9672 38.04 51.9672 36.9644V14.1822C51.9672 12.8133 51.7213 11.7867 51.1803 11.1511C50.6885 10.5156 49.7541 10.2222 48.4754 10.2222V9.24445C49.4098 9.34222 50.3443 9.39111 51.2787 9.39111C53.1967 9.39111 54.7705 9.19556 56 8.75556V13.5467C56.6885 11.9822 57.6229 10.76 58.9016 9.92889C60.1803 9.04889 61.6065 8.65778 63.2787 8.65778C65 8.60889 66.4262 9.04889 67.7049 9.92889ZM67.4098 20.44C67.4098 13.4489 65.6393 9.97778 62.1475 9.97778C60.7705 9.97778 59.541 10.4667 58.459 11.4444C57.377 12.4222 56.5902 13.84 56.0984 15.6489V29.1911C56.541 30.0711 57.1311 30.7556 57.9672 31.2933C58.8033 31.8311 59.7869 32.0756 60.918 32.0756C65.2459 32.1244 67.4098 28.2133 67.4098 20.44Z" fill="white"/>
<path d="M95 27.0889C94.459 28.7511 93.4262 30.1689 91.9508 31.3422C90.4754 32.5156 88.6557 33.1022 86.541 33.1022C84.377 33.1022 82.5082 32.6133 80.9344 31.6356C79.3606 30.6578 78.1311 29.2889 77.3443 27.5289C76.5082 25.7689 76.1147 23.7156 76.1147 21.4178C76.1147 18.7778 76.5574 16.5289 77.3934 14.6222C78.2295 12.7156 79.459 11.2 80.9836 10.1733C82.5082 9.14666 84.3279 8.60889 86.3934 8.60889C89.0984 8.60889 91.2131 9.44 92.6885 11.0533C94.1639 12.7156 94.9016 15.2089 94.9016 18.5333H80.6885C80.5902 19.3644 80.541 20.3422 80.541 21.4178C80.541 23.4222 80.8852 25.1333 81.5246 26.6C82.1639 28.0667 83.0492 29.1911 84.1311 30.0222C85.2131 30.8044 86.3443 31.1956 87.5246 31.1956C89 31.1956 90.2787 30.8533 91.4098 30.1689C92.541 29.4844 93.4754 28.3111 94.2131 26.6978L95 27.0889ZM82.459 11.5422C81.4262 12.9111 80.7869 14.9644 80.541 17.7022H90.4754C90.5246 15.3556 90.1803 13.4 89.4426 11.8356C88.7049 10.2711 87.6229 9.48889 86.1475 9.48889C84.7213 9.48889 83.4918 10.1733 82.459 11.5422Z" fill="white"/>
<path d="M115.361 9.68444C116.148 10.3689 116.541 11.2 116.541 12.2267C116.541 13.0089 116.295 13.6933 115.852 14.2311C115.361 14.7689 114.771 15.0622 113.984 15.0622C113.295 15.0622 112.754 14.8667 112.262 14.4267C111.771 13.9867 111.574 13.4489 111.574 12.7156C111.574 11.7378 112.066 10.9067 113.098 10.2711C112.902 9.97778 112.557 9.83111 112.164 9.83111C110.984 9.83111 109.902 10.2711 108.918 11.2C107.934 12.1289 107.197 13.2533 106.656 14.5733C106.115 15.8933 105.82 17.1644 105.82 18.3378V27.92C105.82 29.2889 106.213 30.2667 107 30.8044C107.787 31.3422 109.016 31.6356 110.59 31.6356V32.5644L109.508 32.5156C106.41 32.4178 104.443 32.3689 103.607 32.3689C102.82 32.3689 101.049 32.4178 98.2459 32.5644V31.6356C99.5246 31.6356 100.41 31.3911 100.951 30.9511C101.443 30.4622 101.738 29.6311 101.738 28.4089V14.1822C101.738 12.8133 101.492 11.7867 100.951 11.1511C100.459 10.5156 99.5246 10.2222 98.2459 10.2222V9.24444C99.2295 9.34222 100.164 9.39111 101.049 9.39111C102.967 9.39111 104.541 9.19555 105.771 8.75555V14.3778C106.311 12.8622 107.197 11.5422 108.377 10.3689C109.557 9.19555 110.885 8.60889 112.361 8.60889C113.639 8.60889 114.623 8.95111 115.361 9.68444Z" fill="white"/>
</svg>
